<?xml version="1.0" encoding="UTF-8" standalone="no"?>
<svg
   xmlns:dc="http://purl.org/dc/elements/1.1/"
   xmlns:cc="http://creativecommons.org/ns#"
   xmlns:rdf="http://www.w3.org/1999/02/22-rdf-syntax-ns#"
   xmlns:svg="http://www.w3.org/2000/svg"
   xmlns="http://www.w3.org/2000/svg"
   xmlns:sodipodi="http://sodipodi.sourceforge.net/DTD/sodipodi-0.dtd"
   xmlns:inkscape="http://www.inkscape.org/namespaces/inkscape"
   version="1.1"
   id="Layer_1"
   x="0px"
   y="0px"
   viewBox="0 0 100 100"
   style="enable-background:new 0 0 100 100;"
   xml:space="preserve"
   sodipodi:docname="geolocation.svg"
   inkscape:version="1.0.2-2 (e86c870879, 2021-01-15)"><metadata
   id="metadata13"><rdf:RDF><cc:Work
       rdf:about=""><dc:format>image/svg+xml</dc:format><dc:type
         rdf:resource="http://purl.org/dc/dcmitype/StillImage" /><dc:title /></cc:Work></rdf:RDF></metadata><defs
   id="defs11" /><sodipodi:namedview
   pagecolor="#ffffff"
   bordercolor="#666666"
   borderopacity="1"
   objecttolerance="10"
   gridtolerance="10"
   guidetolerance="10"
   inkscape:pageopacity="0"
   inkscape:pageshadow="2"
   inkscape:window-width="2304"
   inkscape:window-height="1190"
   id="namedview9"
   showgrid="false"
   inkscape:zoom="3.52"
   inkscape:cx="66.981339"
   inkscape:cy="43.571107"
   inkscape:window-x="2293"
   inkscape:window-y="-11"
   inkscape:window-maximized="1"
   inkscape:current-layer="Layer_1"
   inkscape:snap-bbox="true"
   inkscape:bbox-paths="true"
   inkscape:bbox-nodes="true"
   inkscape:snap-bbox-edge-midpoints="true"
   inkscape:snap-bbox-midpoints="true"
   inkscape:object-paths="true"
   inkscape:snap-intersection-paths="true"
   inkscape:snap-smooth-nodes="true"
   inkscape:snap-midpoints="true"
   inkscape:snap-object-midpoints="true"
   inkscape:snap-center="true"
   inkscape:snap-text-baseline="true"
   inkscape:snap-page="true"
   inkscape:snap-global="false"
   inkscape:document-rotation="0" />

<path
   id="path839"
   style="opacity:1;fill:#867c79;stroke:none;stroke-width:5.866;stroke-linecap:round;stroke-linejoin:round"
   d="M 50 0 C 47.412531 0 45.330078 2.6550137 45.330078 5.953125 L 45.330078 11.75 C 27.821586 13.881393 13.881393 27.821586 11.75 45.330078 L 5.953125 45.330078 C 2.655013 45.330078 0 47.412531 0 50 C 0 52.587469 2.655014 54.669922 5.953125 54.669922 L 11.75 54.669922 C 13.881393 72.178414 27.821586 86.118607 45.330078 88.25 L 45.330078 94.046875 C 45.330078 97.344986 47.412531 100 50 100 C 52.587469 100 54.669922 97.344986 54.669922 94.046875 L 54.669922 88.25 C 72.178414 86.118607 86.118607 72.178414 88.25 54.669922 L 94.046875 54.669922 C 97.344986 54.669922 100 52.587469 100 50 C 100 47.412531 97.344987 45.330078 94.046875 45.330078 L 88.25 45.330078 C 86.118607 27.821586 72.178414 13.881393 54.669922 11.75 L 54.669922 5.953125 C 54.669922 2.6550137 52.587469 0 50 0 z M 50 20.867188 C 66.145323 20.867188 79.132812 33.854677 79.132812 50 C 79.132812 66.145323 66.145323 79.132812 50 79.132812 C 33.854677 79.132812 20.867186 66.145323 20.867188 50 C 20.867188 33.854677 33.854677 20.867187 50 20.867188 z M 50 30.414062 A 19.586054 19.586054 0 0 0 30.414062 50 A 19.586054 19.586054 0 0 0 50 69.585938 A 19.586054 19.586054 0 0 0 69.585938 50 A 19.586054 19.586054 0 0 0 50 30.414062 z " /></svg>
