<?xml version="1.0" encoding="UTF-8" standalone="no"?>
<svg
   xmlns:dc="http://purl.org/dc/elements/1.1/"
   xmlns:cc="http://creativecommons.org/ns#"
   xmlns:rdf="http://www.w3.org/1999/02/22-rdf-syntax-ns#"
   xmlns:svg="http://www.w3.org/2000/svg"
   xmlns="http://www.w3.org/2000/svg"
   xmlns:sodipodi="http://sodipodi.sourceforge.net/DTD/sodipodi-0.dtd"
   xmlns:inkscape="http://www.inkscape.org/namespaces/inkscape"
   width="500"
   height="500"
   viewBox="0 0 132.29166 132.29167"
   version="1.1"
   id="svg8"
   inkscape:version="1.0.2-2 (e86c870879, 2021-01-15)"
   sodipodi:docname="logo.svg">
  <defs
     id="defs2" />
  <sodipodi:namedview
     id="base"
     pagecolor="#000000"
     bordercolor="#ffffff"
     borderopacity="1"
     inkscape:pageopacity="0"
     inkscape:pageshadow="2"
     inkscape:zoom="0.98994949"
     inkscape:cx="336.40753"
     inkscape:cy="186.52723"
     inkscape:document-units="px"
     inkscape:current-layer="layer1"
     inkscape:document-rotation="0"
     showgrid="false"
     units="px"
     inkscape:pagecheckerboard="true"
     inkscape:showpageshadow="false"
     inkscape:snap-bbox="true"
     inkscape:bbox-paths="true"
     inkscape:bbox-nodes="true"
     inkscape:snap-bbox-edge-midpoints="true"
     inkscape:snap-bbox-midpoints="true"
     inkscape:object-paths="true"
     inkscape:snap-intersection-paths="true"
     inkscape:snap-smooth-nodes="true"
     inkscape:snap-midpoints="true"
     inkscape:snap-object-midpoints="true"
     inkscape:snap-center="true"
     inkscape:snap-text-baseline="true"
     inkscape:snap-page="true"
     inkscape:snap-global="false"
     inkscape:window-width="1920"
     inkscape:window-height="974"
     inkscape:window-x="-11"
     inkscape:window-y="-11"
     inkscape:window-maximized="1" />
  <metadata
     id="metadata5">
    <rdf:RDF>
      <cc:Work
         rdf:about="">
        <dc:format>image/svg+xml</dc:format>
        <dc:type
           rdf:resource="http://purl.org/dc/dcmitype/StillImage" />
        <dc:title></dc:title>
      </cc:Work>
    </rdf:RDF>
  </metadata>
  <g
     inkscape:label="Layer 1"
     inkscape:groupmode="layer"
     id="layer1">
    <path
       id="path844"
       style="opacity:1;fill:#d03c0b;fill-opacity:1;stroke:none;stroke-width:0.421751;stroke-opacity:0.694118"
       d="M 66.146097,3.095e-4 C 40.746122,2.3217951e-4 20.155272,20.590844 20.155055,45.990819 c -1.04e-4,2.274937 0.168587,4.546747 0.504682,6.79672 0.233085,1.558853 0.546153,3.104693 0.937964,4.6314 1.818545,7.39075 5.379894,15.64257 11.186318,24.30861 4.890694,7.29929 11.256255,12.24287 17.693115,22.737241 4.918705,8.01924 7.879109,17.8449 12.116715,25.58845 0.72759,1.32954 2.676151,2.23834 3.552248,2.23834 0.876105,0 2.824123,-0.9088 3.551713,-2.23834 4.237601,-7.74355 7.046355,-17.66424 12.116711,-25.58845 6.971407,-10.895276 12.80242,-15.437951 17.69311,-22.737241 5.806159,-8.66563 9.367689,-16.91704 11.186329,-24.30754 0.39154,-1.525824 0.70442,-3.070757 0.93742,-4.62869 l 5.3e-4,-0.004 c 0.3361,-2.249976 0.5048,-4.521789 0.5047,-6.79673 C 112.13639,20.590823 91.545863,3.0033521e-4 66.146097,8.55e-5 Z M 62.026413,25.833796 h 7.992171 l -0.794623,2.366001 c 9.668906,1.880067 16.772434,11.878662 16.77245,23.608122 -1.14e-4,0.677981 -0.0243,1.35565 -0.0725,2.03117 H 46.120474 c -0.048,-0.67553 -0.07199,-1.353199 -0.07191,-2.03117 -2.6e-5,-11.729252 7.10322,-21.727772 16.771912,-23.608122 z M 45.33835,55.724219 h 41.614961 c 1.415,0 2.55425,1.13923 2.55425,2.55424 0,1.41502 -1.13925,2.55425 -2.55425,2.55425 H 45.33835 c -1.415012,0 -2.554246,-1.13923 -2.554246,-2.55425 0,-1.41501 1.139234,-2.55424 2.554246,-2.55424 z"
       sodipodi:nodetypes="ccccsssscsscccccccccccccccsssssss" />
  </g>
</svg>
