<?xml version="1.0" encoding="UTF-8" standalone="no"?>
<svg
   xmlns:dc="http://purl.org/dc/elements/1.1/"
   xmlns:cc="http://creativecommons.org/ns#"
   xmlns:rdf="http://www.w3.org/1999/02/22-rdf-syntax-ns#"
   xmlns:svg="http://www.w3.org/2000/svg"
   xmlns="http://www.w3.org/2000/svg"
   xmlns:sodipodi="http://sodipodi.sourceforge.net/DTD/sodipodi-0.dtd"
   xmlns:inkscape="http://www.inkscape.org/namespaces/inkscape"
   width="500"
   height="500"
   viewBox="0 0 132.29166 132.29167"
   version="1.1"
   id="svg8"
   inkscape:version="1.0.2-2 (e86c870879, 2021-01-15)"
   sodipodi:docname="logo.svg">
  <defs
     id="defs2">
    <inkscape:path-effect
       effect="bspline"
       id="path-effect925"
       is_visible="true"
       lpeversion="1"
       weight="33.333333"
       steps="2"
       helper_size="0"
       apply_no_weight="true"
       apply_with_weight="true"
       only_selected="false" />
    <inkscape:path-effect
       effect="bspline"
       id="path-effect921"
       is_visible="true"
       lpeversion="1"
       weight="33.333333"
       steps="2"
       helper_size="0"
       apply_no_weight="true"
       apply_with_weight="true"
       only_selected="false" />
    <inkscape:path-effect
       effect="bspline"
       id="path-effect898"
       is_visible="true"
       lpeversion="1"
       weight="33.333333"
       steps="2"
       helper_size="0"
       apply_no_weight="true"
       apply_with_weight="true"
       only_selected="false" />
  </defs>
  <sodipodi:namedview
     id="base"
     pagecolor="#808080"
     bordercolor="#ffffff"
     borderopacity="1"
     inkscape:pageopacity="0"
     inkscape:pageshadow="2"
     inkscape:zoom="0.5"
     inkscape:cx="489.64106"
     inkscape:cy="390.27316"
     inkscape:document-units="px"
     inkscape:current-layer="layer1"
     inkscape:document-rotation="0"
     showgrid="false"
     units="px"
     inkscape:pagecheckerboard="true"
     inkscape:showpageshadow="false"
     inkscape:snap-bbox="true"
     inkscape:bbox-paths="true"
     inkscape:bbox-nodes="true"
     inkscape:snap-bbox-edge-midpoints="true"
     inkscape:snap-bbox-midpoints="true"
     inkscape:object-paths="true"
     inkscape:snap-intersection-paths="true"
     inkscape:snap-smooth-nodes="true"
     inkscape:snap-midpoints="true"
     inkscape:snap-object-midpoints="true"
     inkscape:snap-center="true"
     inkscape:snap-text-baseline="true"
     inkscape:snap-page="true"
     inkscape:snap-global="true"
     showguides="true"
     inkscape:guide-bbox="true"
     inkscape:window-width="2304"
     inkscape:window-height="1190"
     inkscape:window-x="2293"
     inkscape:window-y="-11"
     inkscape:window-maximized="1" />
  <metadata
     id="metadata5">
    <rdf:RDF>
      <cc:Work
         rdf:about="">
        <dc:format>image/svg+xml</dc:format>
        <dc:type
           rdf:resource="http://purl.org/dc/dcmitype/StillImage" />
        <dc:title />
      </cc:Work>
    </rdf:RDF>
  </metadata>
  <g
     inkscape:label="Layer 1"
     inkscape:groupmode="layer"
     id="layer1">
    <path
       id="path836"
       style="fill:#ffff00;stroke-width:2.38125;stroke-linecap:round;stroke-linejoin:round"
       inkscape:transform-center-y="-6.0444152"
       d="m 55.5625,122.05075 c -37.041667,-81.367167 -18.520833,-40.683583 0,0 z"
       sodipodi:nodetypes="cc" />
    <path
       id="rect830"
       style="opacity:1;fill:#f2460d;fill-opacity:1;stroke-width:2.65764;stroke-linecap:round;stroke-linejoin:round"
       d="M 66.080311,2.0040582 C 63.370305,2.0219905 60.783654,3.1391986 58.912726,5.0998311 40.195428,24.709829 21.480168,44.317229 2.7630015,63.927042 -3.3048765,70.289595 1.2024192,80.822739 9.9945297,80.826473 h 8.6772133 v 39.464167 c 9.3e-4,5.52085 4.47623,9.99616 9.997082,9.99709 H 103.4289 c 5.52085,-9.4e-4 9.99615,-4.47624 9.99708,-9.99709 V 80.826473 h 8.87115 c 8.79211,-0.0037 13.29941,-10.536878 7.23153,-16.899431 C 110.811,44.316701 92.091605,24.70932 73.374742,5.0998311 71.519827,3.1561784 68.960746,2.0408058 66.274257,2.0050927 66.209615,2.0041073 66.144964,2.003749 66.080315,2.0040176 Z M 51.585796,48.928286 c 6.05602,0 10.931168,4.875153 10.931168,10.931163 v 10.740363 c 0,4.604405 -2.819424,8.522992 -6.832113,10.138617 v 34.443601 c 0,2.27092 -1.828126,4.09905 -4.099055,4.09905 -2.270929,0 -4.099056,-1.82813 -4.099056,-4.09905 V 80.738429 C 43.474058,79.122804 40.654633,75.204217 40.654633,70.599812 V 59.859449 c 0,-6.05601 4.875146,-10.931163 10.931163,-10.931163 z m 29.120075,2.226705 v 10e-4 c 0.406566,0 0.813173,0.0219 1.16891,0.09757 0.177854,0.03753 0.343495,0.08948 0.489579,0.157224 0.146087,0.06796 0.272688,0.151542 0.374258,0.256852 0.101584,0.105289 0.178769,0.230965 0.235883,0.372161 0.05711,0.1414 0.09415,0.2985 0.119511,0.465462 0.05071,0.334063 0.05137,0.709735 0.05137,1.085042 v 1.939463 11.013973 c 0,1.299981 0.517057,2.347268 1.817043,2.347268 1.299985,0 1.818095,-1.047287 1.818095,-2.347268 V 55.935525 c 0,-1.456048 -2.68e-4,-2.912237 0.512645,-2.912319 0.512924,-1.01e-4 2.786011,1.197593 3.6226,2.912319 h -0.0033 c 0.46648,1.21721 0.724413,2.538514 0.724413,3.923984 v 10.740364 c 0,4.604383 -2.819419,8.522991 -6.832113,10.138616 v 34.443601 c 0,2.27094 -1.82812,4.09906 -4.09905,4.09906 -2.270931,0 -4.099057,-1.82812 -4.099057,-4.09906 V 80.73849 C 72.594005,79.122865 69.774579,75.204257 69.774579,70.599874 V 59.85951 c 0,-1.385572 0.25882,-2.706692 0.725459,-3.923984 h -0.0043 c 0.836588,-1.714726 3.109686,-2.91242 3.622605,-2.912319 0.512908,1.01e-4 0.51264,1.456271 0.51264,2.912319 v 10.608277 c 0,1.299981 0.518108,2.347269 1.818096,2.347269 1.299985,0 1.817041,-1.047288 1.817041,-2.347269 V 55.720628 53.215059 c 0,-0.187652 -4.93e-4,-0.468707 0.05029,-0.755868 0.02544,-0.14363 0.06441,-0.289066 0.12162,-0.424582 0.05719,-0.135516 0.133164,-0.261639 0.234833,-0.366907 0.101676,-0.10529 0.228109,-0.189075 0.374257,-0.256853 0.146146,-0.06776 0.311684,-0.11949 0.489581,-0.157223 0.355811,-0.07547 0.762349,-0.09859 1.168916,-0.09859 z"
       sodipodi:nodetypes="ccccccccccccccccssscssscssscccccccscsssssccsscssscssccssssscscsssscc" />
  </g>
</svg>
